# Exported from Wings 3D 1.2
mtllib robotwheel.mtl
o cylinder5_sep9
#64 vertices, 124 faces
v 0.17500000 0.0000000e+0 0.12499958
v 0.12374369 -0.12374369 0.12499958
v 2.2204460e-16 -0.17500000 0.12499958
v -0.12374369 -0.12374369 0.12499958
v -0.17500000 0.0000000e+0 0.12499958
v -0.12374369 0.12374369 0.12499958
v 2.2204460e-16 0.17500000 0.12499958
v 0.12374369 0.12374369 0.12499958
v 0.17500000 0.0000000e+0 -0.12500017
v 0.12374369 -0.12374369 -0.12500017
v 2.2204460e-16 -0.17500000 -0.12500017
v -0.12374369 -0.12374369 -0.12500017
v -0.17500000 0.0000000e+0 -0.12500017
v -0.12374369 0.12374369 -0.12500017
v 2.2204460e-16 0.17500000 -0.12500017
v 0.12374369 0.12374369 -0.12500017
v 5.8333333e-2 0.0000000e+0 -0.12500017
v 4.1247896e-2 -4.1247896e-2 -0.12500017
v 2.2204460e-16 -5.8333333e-2 -0.12500017
v -4.1247896e-2 -4.1247896e-2 -0.12500017
v -5.8333333e-2 0.0000000e+0 -0.12500017
v -4.1247896e-2 4.1247896e-2 -0.12500017
v 2.2204460e-16 5.8333333e-2 -0.12500017
v 4.1247896e-2 4.1247896e-2 -0.12500017
v 5.8333333e-2 0.0000000e+0 -0.17500012
v 4.1247896e-2 -4.1247896e-2 -0.17500012
v 0.0000000e+0 -5.8333333e-2 -0.17500012
v -4.1247896e-2 -4.1247896e-2 -0.17500012
v -5.8333333e-2 0.0000000e+0 -0.17500012
v -4.1247896e-2 4.1247896e-2 -0.17500012
v 0.0000000e+0 5.8333333e-2 -0.17500012
v 4.1247896e-2 4.1247896e-2 -0.17500012
v 0.15547000 0.0000000e+0 0.12499958
v 0.10993389 0.10993389 0.12499958
v 2.2204460e-16 0.15547000 0.12499958
v -0.10993389 0.10993389 0.12499958
v -0.15547000 0.0000000e+0 0.12499958
v -0.10993389 -0.10993389 0.12499958
v 2.2204460e-16 -0.15547000 0.12499958
v 0.10993389 -0.10993389 0.12499958
v 0.15547000 0.0000000e+0 -0.10000020
v 0.10993389 0.10993389 -0.10000020
v 2.2204460e-16 0.15547000 -0.10000020
v -0.10993389 0.10993389 -0.10000020
v -0.15547000 0.0000000e+0 -0.10000020
v -0.10993389 -0.10993389 -0.10000020
v 2.2204460e-16 -0.15547000 -0.10000020
v 0.10993389 -0.10993389 -0.10000020
v 7.7735000e-2 0.0000000e+0 -0.10000020
v 5.4966946e-2 5.4966946e-2 -0.10000020
v 2.2204460e-16 7.7735000e-2 -0.10000020
v -5.4966946e-2 5.4966946e-2 -0.10000020
v -7.7735000e-2 0.0000000e+0 -0.10000020
v -5.4966946e-2 -5.4966946e-2 -0.10000020
v 2.2204460e-16 -7.7735000e-2 -0.10000020
v 5.4966946e-2 -5.4966946e-2 -0.10000020
v 5.4966946e-2 -5.4966946e-2 2.7261703e-2
v 7.7735000e-2 0.0000000e+0 2.7261703e-2
v 5.4966946e-2 5.4966946e-2 2.7261703e-2
v 2.2204460e-16 7.7735000e-2 2.7261703e-2
v -5.4966946e-2 5.4966946e-2 2.7261703e-2
v -7.7735000e-2 0.0000000e+0 2.7261703e-2
v -5.4966946e-2 -5.4966946e-2 2.7261703e-2
v 2.2204460e-16 -7.7735000e-2 2.7261703e-2
vt 1.4503835e-2 0.74692767
vt 1.4503835e-2 0.46317465
vt 1.5062189e-2 5.2489140e-2
vt 1.5062189e-2 0.21325032
vt 5.2729088e-2 0.73109425
vt 5.2729088e-2 0.47900807
vt 5.2729088e-2 0.47900807
vt 0.10119117 5.2489140e-2
vt 0.10119117 0.21325032
vt 0.16750192 0.68050944
vt 0.17503803 0.52593263
vt 0.18732015 5.2489140e-2
vt 0.18732015 0.21325032
vt 0.20487655 0.54202961
vt 0.20487655 0.66807270
vt 0.20487655 0.54202961
vt 0.20487655 0.66807270
vt 0.21514751 0.94757134
vt 0.21514751 0.26253097
vt 0.23098093 0.30075623
vt 0.23098093 0.90934609
vt 0.23098093 0.30075623
vt 0.23098093 0.90934609
vt 0.27344914 5.2489140e-2
vt 0.27344914 0.21325032
vt 0.27922262 0.78760412
vt 0.28434050 0.42249820
vt 0.29400248 0.75719863
vt 0.29400248 0.75719863
vt 0.29400248 0.45290369
vt 0.29400248 0.45290369
vt 0.29696624 0.62896318
vt 0.29832591 0.58009220
vt 0.32930671 0.61608681
vt 0.32978736 0.59351798
vt 0.33154484 0.66352533
vt 0.33363004 0.54629450
vt 0.34516830 0.63214899
vt 0.34616618 0.57778044
vt 0.35957812 5.2489140e-2
vt 0.35957812 0.21325032
vt 0.36788187 0.63232188
vt 0.36887974 0.57795333
vt 0.38041800 0.66380782
vt 0.38250320 0.54657698
vt 0.38426069 0.61658434
vt 0.38474133 0.59401550
vt 0.41572213 0.63001012
vt 0.41708180 0.58113913
vt 0.42004557 0.75719863
vt 0.42004557 0.45290369
vt 0.42004557 0.45290369
vt 0.42004557 0.75719863
vt 0.42970754 0.78760412
vt 0.43482543 0.42249820
vt 0.44570710 5.2489140e-2
vt 0.44570710 0.21325032
vt 0.48306711 0.90934609
vt 0.48306711 0.30075623
vt 0.49890053 0.94757134
vt 0.49890053 0.26253097
vt 0.50917149 0.54202961
vt 0.50917149 0.66807270
vt 0.50917149 0.66807270
vt 0.50917149 0.54202961
vt 0.53183608 5.2489140e-2
vt 0.53183608 0.21325032
vt 0.53901001 0.68416969
vt 0.54654612 0.52959288
vt 0.61796506 5.2489140e-2
vt 0.61796506 0.21325032
vt 0.66131895 0.47900807
vt 0.66131895 0.73109425
vt 0.66131895 0.47900807
vt 0.66131895 0.73109425
vt 0.69954421 0.46317465
vt 0.69954421 0.74692767
vt 0.70409405 5.2489140e-2
vt 0.70409405 0.21325032
vn 0.0000000e+0 0.0000000e+0 1.00000000
vn 0.0000000e+0 0.0000000e+0 1.00000000
vn 1.00000000 -3.0042419e-17 0.0000000e+0
vn 1.00000000 -3.0042419e-17 0.0000000e+0
vn -2.2453547e-16 0.0000000e+0 1.00000000
vn -2.2453547e-16 0.0000000e+0 1.00000000
vn 0.70710678 -0.70710678 5.7476656e-16
vn 0.70710678 -0.70710678 5.7476656e-16
vn -2.2453547e-16 0.0000000e+0 1.00000000
vn -2.2453547e-16 0.0000000e+0 1.00000000
vn 0.70710678 -0.70710678 5.7476656e-16
vn 0.70710678 -0.70710678 5.7476656e-16
vn 0.0000000e+0 0.0000000e+0 1.00000000
vn 1.8626300e-15 -1.00000000 0.0000000e+0
vn 0.0000000e+0 0.0000000e+0 1.00000000
vn 1.8626300e-15 -1.00000000 0.0000000e+0
vn 2.2453547e-16 0.0000000e+0 1.00000000
vn 2.2453547e-16 0.0000000e+0 1.00000000
vn -0.70710678 -0.70710678 0.0000000e+0
vn -0.70710678 -0.70710678 0.0000000e+0
vn 2.2453547e-16 0.0000000e+0 1.00000000
vn 2.2453547e-16 0.0000000e+0 1.00000000
vn -0.70710678 -0.70710678 0.0000000e+0
vn -0.70710678 -0.70710678 0.0000000e+0
vn 0.0000000e+0 0.0000000e+0 1.00000000
vn -1.00000000 5.7080595e-16 0.0000000e+0
vn -1.00000000 5.7080595e-16 0.0000000e+0
vn 0.0000000e+0 0.0000000e+0 1.00000000
vn 2.2453547e-16 0.0000000e+0 1.00000000
vn 2.2453547e-16 0.0000000e+0 1.00000000
vn -0.70710678 0.70710678 0.0000000e+0
vn -0.70710678 0.70710678 0.0000000e+0
vn -0.70710678 0.70710678 0.0000000e+0
vn 2.2453547e-16 0.0000000e+0 1.00000000
vn 2.2453547e-16 0.0000000e+0 1.00000000
vn -0.70710678 0.70710678 0.0000000e+0
vn 0.0000000e+0 0.0000000e+0 1.00000000
vn 3.0042419e-16 1.00000000 0.0000000e+0
vn 0.0000000e+0 0.0000000e+0 1.00000000
vn 3.0042419e-16 1.00000000 0.0000000e+0
vn -2.2453547e-16 0.0000000e+0 1.00000000
vn -2.2453547e-16 0.0000000e+0 1.00000000
vn 0.70710678 0.70710678 0.0000000e+0
vn 0.70710678 0.70710678 0.0000000e+0
vn -2.2453547e-16 0.0000000e+0 1.00000000
vn -2.2453547e-16 0.0000000e+0 1.00000000
vn 0.70710678 0.70710678 0.0000000e+0
vn 0.70710678 0.70710678 0.0000000e+0
vn -1.2016014e-16 0.0000000e+0 -1.00000000
vn -1.2016014e-16 0.0000000e+0 -1.00000000
vn 1.00000000 2.7038177e-16 1.8224306e-16
vn 1.00000000 2.5536056e-16 1.8224306e-16
vn -1.2016014e-16 0.0000000e+0 -1.00000000
vn -1.2016014e-16 0.0000000e+0 -1.00000000
vn 1.00000000 2.5536056e-16 1.8224306e-16
vn 1.00000000 2.7038177e-16 1.8224306e-16
vn 0.70710678 -0.70710678 1.1495331e-15
vn -1.2016014e-16 0.0000000e+0 -1.00000000
vn -1.2016014e-16 0.0000000e+0 -1.00000000
vn 0.70710678 -0.70710678 1.1495331e-15
vn 4.5060051e-17 0.0000000e+0 -1.00000000
vn 4.5060051e-17 0.0000000e+0 -1.00000000
vn 1.0815271e-15 -1.00000000 3.9252351e-16
vn 1.0665059e-15 -1.00000000 3.9252351e-16
vn 4.5060051e-17 0.0000000e+0 -1.00000000
vn 4.5060051e-17 0.0000000e+0 -1.00000000
vn 1.0665059e-15 -1.00000000 3.9252351e-16
vn 1.0965483e-15 -1.00000000 3.9252351e-16
vn -0.70710678 -0.70710678 0.0000000e+0
vn 1.2016014e-16 0.0000000e+0 -1.00000000
vn 1.2016014e-16 0.0000000e+0 -1.00000000
vn -0.70710678 -0.70710678 0.0000000e+0
vn 1.2016014e-16 0.0000000e+0 -1.00000000
vn 1.2016014e-16 0.0000000e+0 -1.00000000
vn -1.00000000 5.8582716e-16 0.0000000e+0
vn -1.00000000 5.8582716e-16 0.0000000e+0
vn 1.2016014e-16 0.0000000e+0 -1.00000000
vn 1.2016014e-16 0.0000000e+0 -1.00000000
vn -1.00000000 5.8582716e-16 0.0000000e+0
vn -1.00000000 5.7080595e-16 0.0000000e+0
vn -0.70710678 0.70710678 0.0000000e+0
vn 1.2016014e-16 0.0000000e+0 -1.00000000
vn 1.2016014e-16 0.0000000e+0 -1.00000000
vn -0.70710678 0.70710678 0.0000000e+0
vn -4.5060051e-17 0.0000000e+0 -1.00000000
vn -4.5060051e-17 0.0000000e+0 -1.00000000
vn 3.0042419e-16 1.00000000 0.0000000e+0
vn 3.0042419e-16 1.00000000 0.0000000e+0
vn -4.5060051e-17 0.0000000e+0 -1.00000000
vn -4.5060051e-17 0.0000000e+0 -1.00000000
vn 3.0042419e-16 1.00000000 0.0000000e+0
vn 3.0042419e-16 1.00000000 0.0000000e+0
vn 0.70710678 0.70710678 0.0000000e+0
vn 0.70710678 0.70710678 0.0000000e+0
vn -1.2016014e-16 0.0000000e+0 -1.00000000
vn -1.2016014e-16 0.0000000e+0 -1.00000000
vn 0.0000000e+0 0.0000000e+0 -1.00000000
vn 0.0000000e+0 0.0000000e+0 -1.00000000
vn 1.00000000 1.7725027e-15 0.0000000e+0
vn 1.00000000 1.7725027e-15 0.0000000e+0
vn -1.5020017e-17 0.0000000e+0 -1.00000000
vn -1.5020017e-17 0.0000000e+0 -1.00000000
vn 0.70710678 -0.70710678 -5.2570113e-16
vn 0.70710678 -0.70710678 -5.2570113e-16
vn -1.5020017e-17 0.0000000e+0 -1.00000000
vn -1.5020017e-17 0.0000000e+0 -1.00000000
vn 0.70710678 -0.70710678 -5.2570113e-16
vn 0.70710678 -0.70710678 -5.2570113e-16
vn 9.0120103e-17 0.0000000e+0 -1.00000000
vn 9.0120103e-17 0.0000000e+0 -1.00000000
vn 9.9139981e-16 -1.00000000 -4.9096771e-30
vn 9.9139981e-16 -1.00000000 -4.9096771e-30
vn 6.0080069e-17 0.0000000e+0 -1.00000000
vn 6.0080069e-17 0.0000000e+0 -1.00000000
vn -0.70710678 -0.70710678 3.1673493e-15
vn -0.70710678 -0.70710678 3.1673493e-15
vn 6.0080069e-17 0.0000000e+0 -1.00000000
vn 6.0080069e-17 0.0000000e+0 -1.00000000
vn -0.70710678 -0.70710678 3.1673493e-15
vn -0.70710678 -0.70710678 3.1673493e-15
vn 0.0000000e+0 0.0000000e+0 -1.00000000
vn 0.0000000e+0 0.0000000e+0 -1.00000000
vn -1.00000000 1.7725027e-15 4.4158895e-15
vn -1.00000000 1.7725027e-15 4.4158895e-15
vn 1.5020017e-17 0.0000000e+0 -1.00000000
vn 1.5020017e-17 0.0000000e+0 -1.00000000
vn -0.70710678 0.70710678 3.1673493e-15
vn -0.70710678 0.70710678 3.1673493e-15
vn 1.5020017e-17 0.0000000e+0 -1.00000000
vn -0.70710678 0.70710678 3.1673493e-15
vn -0.70710678 0.70710678 3.1673493e-15
vn 1.5020017e-17 0.0000000e+0 -1.00000000
vn -9.0120103e-17 0.0000000e+0 -1.00000000
vn -9.0120103e-17 0.0000000e+0 -1.00000000
vn 9.6135739e-16 1.00000000 -4.9096771e-30
vn 9.6135739e-16 1.00000000 -4.9096771e-30
vn -6.0080069e-17 0.0000000e+0 -1.00000000
vn -6.0080069e-17 0.0000000e+0 -1.00000000
vn 0.70710678 0.70710678 -5.2570113e-16
vn 0.70710678 0.70710678 -5.2570113e-16
vn -6.0080069e-17 0.0000000e+0 -1.00000000
vn -6.0080069e-17 0.0000000e+0 -1.00000000
vn 0.70710678 0.70710678 -5.2570113e-16
vn 0.70710678 0.70710678 -5.2570113e-16
vn 1.00000000 1.8626300e-15 0.0000000e+0
vn 1.00000000 1.8626300e-15 0.0000000e+0
vn 0.0000000e+0 0.0000000e+0 -1.00000000
vn 0.0000000e+0 0.0000000e+0 -1.00000000
vn 0.0000000e+0 0.0000000e+0 -1.00000000
vn 1.00000000 1.8626300e-15 0.0000000e+0
vn 1.00000000 1.8626300e-15 0.0000000e+0
vn 0.0000000e+0 0.0000000e+0 -1.00000000
vn 0.70710678 -0.70710678 0.0000000e+0
vn 0.70710678 -0.70710678 0.0000000e+0
vn 0.0000000e+0 0.0000000e+0 -1.00000000
vn 0.0000000e+0 0.0000000e+0 -1.00000000
vn 4.9569991e-16 -1.00000000 4.2056090e-16
vn 5.1072112e-16 -1.00000000 4.2056090e-16
vn 5.1072112e-16 -1.00000000 4.2056090e-16
vn 4.9569991e-16 -1.00000000 4.2056090e-16
vn 0.0000000e+0 0.0000000e+0 -1.00000000
vn -0.70710678 -0.70710678 3.0753516e-15
vn -0.70710678 -0.70710678 3.0753516e-15
vn 0.0000000e+0 0.0000000e+0 -1.00000000
vn 0.0000000e+0 0.0000000e+0 -1.00000000
vn -1.00000000 1.8626300e-15 4.4421745e-15
vn -1.00000000 1.8626300e-15 4.4421745e-15
vn 0.0000000e+0 0.0000000e+0 -1.00000000
vn 0.0000000e+0 0.0000000e+0 -1.00000000
vn 0.0000000e+0 0.0000000e+0 -1.00000000
vn -1.00000000 1.8626300e-15 4.4421745e-15
vn -1.00000000 1.8626300e-15 4.4421745e-15
vn -0.70710678 0.70710678 3.0753516e-15
vn -0.70710678 0.70710678 3.0753516e-15
vn 0.0000000e+0 0.0000000e+0 -1.00000000
vn 0.0000000e+0 0.0000000e+0 -1.00000000
vn 4.8067870e-16 1.00000000 4.2056090e-16
vn 4.8067870e-16 1.00000000 4.2056090e-16
vn 0.0000000e+0 0.0000000e+0 -1.00000000
vn 4.8067870e-16 1.00000000 4.2056090e-16
vn 4.8067870e-16 1.00000000 4.2056090e-16
vn 0.70710678 0.70710678 0.0000000e+0
vn 0.70710678 0.70710678 0.0000000e+0
vn 0.0000000e+0 0.0000000e+0 -1.00000000
vn 0.0000000e+0 0.0000000e+0 -1.00000000
vn 0.0000000e+0 0.0000000e+0 -1.00000000
vn -1.00000000 -7.2101805e-16 0.0000000e+0
vn -1.00000000 -7.0599684e-16 0.0000000e+0
vn -5.0498262e-16 0.0000000e+0 1.00000000
vn -5.0498262e-16 0.0000000e+0 1.00000000
vn -1.00000000 -7.2101805e-16 0.0000000e+0
vn -1.00000000 -7.0599684e-16 0.0000000e+0
vn -5.0498262e-16 0.0000000e+0 1.00000000
vn -5.0498262e-16 0.0000000e+0 1.00000000
vn -0.70710678 -0.70710678 0.0000000e+0
vn -8.0797219e-16 0.0000000e+0 1.00000000
vn -0.70710678 -0.70710678 0.0000000e+0
vn -8.0797219e-16 0.0000000e+0 1.00000000
vn -3.6050902e-16 -1.00000000 0.0000000e+0
vn -3.7553023e-16 -1.00000000 0.0000000e+0
vn -2.4651903e-31 0.0000000e+0 1.00000000
vn -2.4651903e-31 0.0000000e+0 1.00000000
vn -3.4548781e-16 -1.00000000 0.0000000e+0
vn -2.4651903e-31 0.0000000e+0 1.00000000
vn -3.7553023e-16 -1.00000000 0.0000000e+0
vn -2.4651903e-31 0.0000000e+0 1.00000000
vn 0.70710678 -0.70710678 0.0000000e+0
vn 8.0797219e-16 0.0000000e+0 1.00000000
vn 8.0797219e-16 0.0000000e+0 1.00000000
vn 0.70710678 -0.70710678 0.0000000e+0
vn 1.00000000 -7.0599684e-16 0.0000000e+0
vn 1.00000000 -7.2101805e-16 0.0000000e+0
vn 5.0498262e-16 0.0000000e+0 1.00000000
vn 5.0498262e-16 0.0000000e+0 1.00000000
vn 5.0498262e-16 0.0000000e+0 1.00000000
vn 1.00000000 -7.0599684e-16 0.0000000e+0
vn 1.00000000 -7.2101805e-16 0.0000000e+0
vn 5.0498262e-16 0.0000000e+0 1.00000000
vn 0.70710678 0.70710678 0.0000000e+0
vn 8.0797219e-16 0.0000000e+0 1.00000000
vn 0.70710678 0.70710678 0.0000000e+0
vn 8.0797219e-16 0.0000000e+0 1.00000000
vn -3.6050902e-16 1.00000000 0.0000000e+0
vn -3.4548781e-16 1.00000000 0.0000000e+0
vn -3.7224374e-30 0.0000000e+0 1.00000000
vn -3.7224374e-30 0.0000000e+0 1.00000000
vn -3.7553023e-16 1.00000000 0.0000000e+0
vn -3.4548781e-16 1.00000000 0.0000000e+0
vn -3.7224374e-30 0.0000000e+0 1.00000000
vn -3.7224374e-30 0.0000000e+0 1.00000000
vn -0.70710678 0.70710678 0.0000000e+0
vn -0.70710678 0.70710678 0.0000000e+0
vn -8.0797219e-16 0.0000000e+0 1.00000000
vn -8.0797219e-16 0.0000000e+0 1.00000000
vn -1.00000000 -6.9097563e-16 0.0000000e+0
vn -1.00000000 -6.9097563e-16 0.0000000e+0
vn 0.0000000e+0 0.0000000e+0 1.00000000
vn 0.0000000e+0 0.0000000e+0 1.00000000
vn -5.0748366e-17 0.0000000e+0 1.00000000
vn -5.0748366e-17 0.0000000e+0 1.00000000
vn -0.70710678 -0.70710678 0.0000000e+0
vn -0.70710678 -0.70710678 0.0000000e+0
vn -0.70710678 -0.70710678 0.0000000e+0
vn -0.70710678 -0.70710678 0.0000000e+0
vn -5.0748366e-17 0.0000000e+0 1.00000000
vn -5.0748366e-17 0.0000000e+0 1.00000000
vn -3.6050902e-16 -1.00000000 0.0000000e+0
vn 2.0954118e-31 0.0000000e+0 1.00000000
vn 2.0954118e-31 0.0000000e+0 1.00000000
vn -3.6050902e-16 -1.00000000 0.0000000e+0
vn 5.0748366e-17 0.0000000e+0 1.00000000
vn 5.0748366e-17 0.0000000e+0 1.00000000
vn 0.70710678 -0.70710678 0.0000000e+0
vn 0.70710678 -0.70710678 0.0000000e+0
vn 0.70710678 -0.70710678 0.0000000e+0
vn 5.0748366e-17 0.0000000e+0 1.00000000
vn 5.0748366e-17 0.0000000e+0 1.00000000
vn 0.70710678 -0.70710678 0.0000000e+0
vn 1.00000000 -7.2101805e-16 0.0000000e+0
vn 0.0000000e+0 0.0000000e+0 1.00000000
vn 0.0000000e+0 0.0000000e+0 1.00000000
vn 1.00000000 -7.2101805e-16 0.0000000e+0
vn 5.0748366e-17 0.0000000e+0 1.00000000
vn 5.0748366e-17 0.0000000e+0 1.00000000
vn 0.70710678 0.70710678 0.0000000e+0
vn 0.70710678 0.70710678 0.0000000e+0
vn 5.0748366e-17 0.0000000e+0 1.00000000
vn 0.70710678 0.70710678 0.0000000e+0
vn 5.0748366e-17 0.0000000e+0 1.00000000
vn 0.70710678 0.70710678 0.0000000e+0
vn -3.6050902e-16 1.00000000 0.0000000e+0
vn -3.6050902e-16 1.00000000 0.0000000e+0
vn -2.0954118e-31 0.0000000e+0 1.00000000
vn -2.0954118e-31 0.0000000e+0 1.00000000
vn -5.0748366e-17 0.0000000e+0 1.00000000
vn -5.0748366e-17 0.0000000e+0 1.00000000
vn -0.70710678 0.70710678 0.0000000e+0
vn -0.70710678 0.70710678 0.0000000e+0
vn -0.70710678 0.70710678 0.0000000e+0
vn -0.70710678 0.70710678 0.0000000e+0
vn -5.0748366e-17 0.0000000e+0 1.00000000
vn -5.0748366e-17 0.0000000e+0 1.00000000
vn -1.0149673e-16 0.0000000e+0 1.00000000
vn -1.0149673e-16 0.0000000e+0 1.00000000
vn 1.00000000 -1.2016967e-16 -1.7514136e-15
vn 1.00000000 -1.2016967e-16 -1.7514136e-15
vn 1.00000000 -1.2016967e-16 -1.7514136e-15
vn 1.00000000 -1.2016967e-16 -1.7514136e-15
vn -1.0149673e-16 0.0000000e+0 1.00000000
vn -1.0149673e-16 0.0000000e+0 1.00000000
vn -2.0299346e-16 0.0000000e+0 1.00000000
vn -2.0299346e-16 0.0000000e+0 1.00000000
vn 0.70710678 0.70710678 -1.1779419e-15
vn 0.70710678 0.70710678 -1.1779419e-15
vn 1.0477059e-31 0.0000000e+0 1.00000000
vn 1.0477059e-31 0.0000000e+0 1.00000000
vn 0.0000000e+0 1.00000000 -5.3366056e-31
vn 1.5021209e-17 1.00000000 -5.3366056e-31
vn 1.0477059e-31 0.0000000e+0 1.00000000
vn 1.5021209e-17 1.00000000 -5.3366056e-31
vn -1.5021209e-17 1.00000000 -5.3366056e-31
vn 1.0477059e-31 0.0000000e+0 1.00000000
vn 2.0299346e-16 0.0000000e+0 1.00000000
vn 2.0299346e-16 0.0000000e+0 1.00000000
vn -0.70710678 0.70710678 1.1934411e-15
vn -0.70710678 0.70710678 1.1934411e-15
vn 1.0149673e-16 0.0000000e+0 1.00000000
vn 1.0149673e-16 0.0000000e+0 1.00000000
vn -1.00000000 -1.0514846e-16 1.7514136e-15
vn -1.00000000 -1.0514846e-16 1.7514136e-15
vn 1.0149673e-16 0.0000000e+0 1.00000000
vn 1.0149673e-16 0.0000000e+0 1.00000000
vn -1.00000000 -1.0514846e-16 1.7514136e-15
vn -1.00000000 -9.0127256e-17 1.7514136e-15
vn 0.0000000e+0 0.0000000e+0 1.00000000
vn 0.0000000e+0 0.0000000e+0 1.00000000
vn -0.70710678 -0.70710678 1.2554380e-15
vn -0.70710678 -0.70710678 1.2554380e-15
vn -1.0477059e-31 0.0000000e+0 1.00000000
vn -1.0477059e-31 0.0000000e+0 1.00000000
vn 0.0000000e+0 -1.00000000 -6.4039267e-31
vn 0.0000000e+0 -1.00000000 -6.4039267e-31
vn -1.5021209e-17 -1.00000000 -6.4039267e-31
vn 1.5021209e-17 -1.00000000 -6.4039267e-31
vn -1.0477059e-31 0.0000000e+0 1.00000000
vn -1.0477059e-31 0.0000000e+0 1.00000000
vn 0.0000000e+0 0.0000000e+0 1.00000000
vn 0.0000000e+0 0.0000000e+0 1.00000000
vn 0.70710678 -0.70710678 -1.2399388e-15
vn 0.70710678 -0.70710678 -1.2399388e-15
vn 0.70710678 -0.70710678 -1.0616976e-15
vn 0.70710678 -0.70710678 -1.0616976e-15
vn 0.0000000e+0 0.0000000e+0 1.00000000
vn 0.0000000e+0 0.0000000e+0 1.00000000
vn 0.0000000e+0 0.0000000e+0 1.00000000
vn 0.70710678 -0.70710678 -1.0616976e-15
vn 0.70710678 -0.70710678 -1.0616976e-15
vn 1.00000000 -9.0127256e-17 -1.7669128e-15
vn 1.00000000 -9.0127256e-17 -1.7669128e-15
vn 0.0000000e+0 0.0000000e+0 1.00000000
vn 0.0000000e+0 0.0000000e+0 1.00000000
vn 0.0000000e+0 0.0000000e+0 1.00000000
vn 0.0000000e+0 0.0000000e+0 1.00000000
vn 0.70710678 0.70710678 -1.0306991e-15
vn 0.70710678 0.70710678 -1.0306991e-15
vn 0.0000000e+0 0.0000000e+0 1.00000000
vn 0.70710678 0.70710678 -1.0306991e-15
vn 0.70710678 0.70710678 -1.0306991e-15
vn 0.0000000e+0 0.0000000e+0 1.00000000
vn -7.2101805e-16 1.00000000 0.0000000e+0
vn -7.2101805e-16 1.00000000 0.0000000e+0
vn 0.0000000e+0 0.0000000e+0 1.00000000
vn -0.70710678 0.70710678 1.0306991e-15
vn -0.70710678 0.70710678 1.0306991e-15
vn 0.0000000e+0 0.0000000e+0 1.00000000
vn 0.0000000e+0 0.0000000e+0 1.00000000
vn -0.70710678 0.70710678 1.0306991e-15
vn -0.70710678 0.70710678 1.0306991e-15
vn -1.00000000 -9.0127256e-17 1.7359143e-15
vn -1.00000000 -9.0127256e-17 1.7359143e-15
vn 0.0000000e+0 0.0000000e+0 1.00000000
vn 0.0000000e+0 0.0000000e+0 1.00000000
vn 0.0000000e+0 0.0000000e+0 1.00000000
vn -0.70710678 -0.70710678 1.0616976e-15
vn -0.70710678 -0.70710678 1.0616976e-15
vn 0.0000000e+0 0.0000000e+0 1.00000000
vn 0.0000000e+0 0.0000000e+0 1.00000000
vn -0.70710678 -0.70710678 1.0616976e-15
vn -0.70710678 -0.70710678 1.0616976e-15
vn -7.2101805e-16 -1.00000000 0.0000000e+0
vn -7.2101805e-16 -1.00000000 0.0000000e+0
vn 0.0000000e+0 0.0000000e+0 1.00000000
g cylinder5_sep9_image4
usemtl image4
s 1
f 1/77/1 8/60/46 33/75/193
f 2/76/5 33/75/189 40/74/233
f 3/61/15 2/76/10 39/59/229
f 4/19/21 39/59/230 38/22/222
f 5/2/28 4/19/22 37/7/218
f 6/1/34 37/7/215 36/5/209
f 7/18/39 6/1/35 35/23/206
f 8/60/45 35/23/204 34/58/198
f 9/11/50 18/37/101 17/33/98
f 9/11/53 24/32/142 16/10/96
f 10/27/58 18/37/105 9/11/54
f 11/55/65 18/37/106 10/27/59
f 11/55/62 20/49/113 19/45/110
f 12/69/70 20/49/117 11/55/66
f 13/68/77 20/49/118 12/69/71
f 13/68/74 22/44/125 21/48/122
f 14/54/82 22/44/129 13/68/78
f 15/26/90 22/44/132 14/54/83
f 15/26/85 24/32/137 23/36/133
f 16/10/95 24/32/141 15/26/89
f 17/33/97 24/32/138 9/11/49
f 18/37/102 11/55/61 19/45/109
f 20/49/114 13/68/73 21/48/121
f 22/44/126 15/26/86 23/36/134
f 25/35/149 29/46/170 32/34/186
f 26/39/155 28/47/164 25/35/147
f 27/43/156 28/47/161 26/39/152
f 29/46/169 25/35/148 28/47/165
f 30/42/176 32/34/185 29/46/168
f 31/38/179 32/34/184 30/42/175
f 33/75/194 2/76/9 1/77/2
f 34/58/196 33/75/190 8/60/41
f 35/23/201 8/60/42 7/18/37
f 36/5/208 35/23/202 6/1/30
f 37/7/213 6/1/29 5/2/25
f 38/22/220 37/7/214 4/19/17
f 39/59/225 4/19/18 3/61/13
f 40/74/234 39/59/226 2/76/6
f 41/73/238 49/64/290 48/72/281
f 42/58/246 49/64/289 41/73/237
f 42/58/240 51/28/295 50/50/292
f 43/21/248 51/28/299 42/58/245
f 44/5/257 51/28/302 43/21/249
f 45/6/260 53/14/311 44/5/256
f 46/20/267 53/14/312 45/6/261
f 46/20/263 55/51/319 54/30/315
f 47/59/274 55/51/326 46/20/269
f 48/72/282 55/51/325 47/59/273
f 49/64/284 42/58/239 50/50/291
f 51/28/296 44/5/251 52/15/303
f 52/15/304 44/5/252 53/14/308
f 53/14/307 46/20/264 54/30/316
f 55/51/320 48/72/275 56/62/327
f 56/62/328 48/72/276 49/64/283
f 58/63/342 62/16/362 57/65/334
f 59/53/346 61/17/355 58/63/340
f 60/29/349 61/17/352 59/53/343
f 62/16/361 58/63/341 61/17/356
f 63/31/367 57/65/335 62/16/363
f 64/52/372 57/65/333 63/31/366
s 2
f 1/40/3 2/56/12 9/41/55
f 2/56/11 11/67/68 10/57/60
f 3/66/16 4/70/24 11/67/67
f 4/70/23 13/79/80 12/71/72
f 5/3/27 6/8/33 13/4/79
f 6/8/36 15/13/92 14/9/84
f 7/12/40 8/24/48 15/13/91
f 8/24/43 9/41/51 16/25/93
f 9/41/56 8/24/47 1/40/4
f 10/57/57 9/41/52 2/56/8
f 11/67/63 2/56/7 3/66/14
f 12/71/69 11/67/64 4/70/20
f 13/79/75 4/70/19 5/78/26
f 14/9/81 13/4/76 6/8/32
f 15/13/87 6/8/31 7/12/38
f 16/25/94 15/13/88 8/24/44
f 17/33/100 25/35/151 24/32/143
f 18/37/108 25/35/150 17/33/99
f 19/45/112 27/43/160 18/37/107
f 20/49/120 27/43/159 19/45/111
f 21/48/124 29/46/172 20/49/119
f 22/44/131 29/46/171 21/48/123
f 23/36/135 31/38/180 22/44/130
f 24/32/144 31/38/181 23/36/136
f 25/35/145 18/37/103 26/39/153
f 26/39/154 18/37/104 27/43/157
f 27/43/158 20/49/115 28/47/162
f 28/47/163 20/49/116 29/46/166
f 29/46/167 22/44/127 30/42/173
f 30/42/174 22/44/128 31/38/177
f 31/38/178 24/32/139 32/34/182
f 32/34/183 24/32/140 25/35/146
f 33/75/192 42/58/243 41/73/236
f 34/58/197 35/23/203 42/58/244
f 35/23/205 44/5/258 43/21/250
f 36/5/210 37/7/216 44/5/255
f 37/7/217 46/20/270 45/6/262
f 38/22/221 39/59/227 46/20/268
f 39/59/228 48/72/279 47/59/272
f 40/74/232 33/75/187 48/72/278
f 41/73/235 48/72/280 33/75/191
f 42/58/241 33/75/188 34/58/195
f 42/58/242 35/23/199 43/21/247
f 44/5/253 35/23/200 36/5/207
f 44/5/254 37/7/211 45/6/259
f 46/20/266 37/7/212 38/22/219
f 46/20/265 39/59/223 47/59/271
f 48/72/277 39/59/224 40/74/231
f 49/64/288 57/65/336 56/62/329
f 50/50/294 59/53/348 49/64/287
f 51/28/301 59/53/347 50/50/293
f 52/15/305 61/17/357 51/28/300
f 53/14/314 61/17/358 52/15/306
f 54/30/318 63/31/369 53/14/313
f 55/51/324 63/31/368 54/30/317
f 56/62/330 57/65/337 55/51/323
f 57/65/331 49/64/285 58/63/338
f 58/63/339 49/64/286 59/53/344
f 59/53/345 51/28/297 60/29/350
f 60/29/351 51/28/298 61/17/353
f 61/17/354 53/14/309 62/16/359
f 62/16/360 53/14/310 63/31/364
f 63/31/365 55/51/321 64/52/370
f 64/52/371 55/51/322 57/65/332
