# Exported from Wings 3D 1.2
mtllib robotflag.mtl
o cylinder7
#21 vertices, 38 faces
v 0.49360722 1.45319384 0.60472566
v 0.46810722 1.45319384 0.63022566
v 0.46810722 1.45319384 0.57922566
v 0.57435805 0.55325055 0.60472566
v 0.54885805 0.55325055 0.63022566
v 0.52335805 0.55325055 0.60472566
v 0.54885805 0.55325055 0.57922566
v 0.53425002 1.15321275 0.60472566
v 0.56633645 0.85323165 0.60472566
v 0.50875002 1.15321275 0.63022566
v 0.54083645 0.85323165 0.63022566
v 0.51533645 0.85323165 0.60472566
v 0.50875002 1.15321275 0.57922566
v 0.54083645 0.85323165 0.57922566
v 0.45054820 1.45319384 0.59678467
v 0.45054820 1.45319384 0.61266664
v 0.49119101 1.15321275 0.59678467
v 0.48444441 1.14204619 0.60472566
v 0.49119101 1.15321275 0.61266664
v 5.2142227e-2 1.09372842 0.60472566
v 1.1499421e-2 1.39370951 0.60472566
vt 0.60804386 0.20821525
vt 0.61022086 0.23309491
vt 0.61089130 0.23314143
vt 0.61104055 0.20809992
vt 0.61201122 0.23243519
vt 0.61295478 0.23306201
vt 0.61378199 0.23209824
vt 0.61424314 0.25809119
vt 0.61630662 0.25801178
vt 0.62518802 0.24333864
vt 0.62629430 0.21826900
vt 0.62680078 0.19621485
vt 0.62830120 0.24254305
vt 0.62831279 0.23309556
vt 0.62893415 0.22058976
vt 0.62893415 0.24554467
vt 0.62906772 0.21830199
vt 0.62938443 0.26997627
vt 0.62944969 0.19632568
vt 0.62977297 0.23363802
vt 0.63043333 0.22050860
vt 0.63043333 0.23097501
vt 0.63043333 0.23255310
vt 0.63043333 0.23521610
vt 0.63043333 0.24568251
vt 0.63135600 0.24242216
vt 0.63193252 0.22064644
vt 0.63193252 0.24560135
vt 0.63248658 0.26916002
vt 0.63255388 0.23309556
vt 0.63371182 0.22336148
vt 0.63392019 0.22548046
vt 0.63540460 0.22444798
vt 0.63567865 0.26894861
vt 0.63720340 0.22547642
vt 0.64332922 0.20885208
vt 0.64515471 0.20997858
vt 0.64696143 0.21109629
vt 0.64706508 0.23375589
vt 0.64706510 0.23243517
vt 0.64852524 0.23521610
vt 0.64852531 0.23097501
vt 0.64885545 0.23309556
vt 0.65064582 0.23309559
vt 0.65137177 0.24597112
vt 0.65286384 0.24437561
vt 0.65364929 0.19418574
vt 0.65542963 0.19538972
vt 0.65720047 0.19658865
vn 0.99273394 0.12033006 1.3689174e-15
vn 0.99777650 6.6648794e-2 3.6086442e-15
vn -0.19620233 -2.0986094e-2 0.98033883
vn 1.5528163e-15 -7.0638397e-17 1.00000000
vn -0.99777650 -6.6648794e-2 2.7457076e-15
vn -0.19620233 -2.0986094e-2 -0.98033883
vn 2.0245579e-15 -6.4495928e-17 -1.00000000
vn 0.0000000e+0 1.00000000 1.5497082e-14
vn 0.99094642 0.13425794 3.6730527e-15
vn 0.99094642 0.13425794 3.6730527e-15
vn 0.0000000e+0 1.00000000 -1.5497082e-14
vn 0.0000000e+0 1.00000000 0.0000000e+0
vn 1.4195531e-15 4.6332635e-16 1.00000000
vn 1.4195531e-15 4.5839734e-16 1.00000000
vn 0.0000000e+0 1.00000000 -1.5497082e-14
vn 1.4195531e-15 4.5839734e-16 1.00000000
vn 1.4195531e-15 4.6332635e-16 1.00000000
vn 0.0000000e+0 1.00000000 1.5497082e-14
vn 1.8533054e-15 4.0417830e-16 -1.00000000
vn 1.9321694e-15 4.0417830e-16 -1.00000000
vn 1.9321694e-15 4.0417830e-16 -1.00000000
vn 1.8927374e-15 4.0417830e-16 -1.00000000
vn 0.0000000e+0 -1.00000000 0.0000000e+0
vn 0.99964267 2.6730818e-2 9.4188718e-16
vn 0.99964267 2.6730818e-2 9.0264188e-16
vn 0.0000000e+0 -1.00000000 0.0000000e+0
vn 0.99964267 2.6730818e-2 9.4188718e-16
vn 0.99964267 2.6730818e-2 9.0264188e-16
vn 1.0992612e-15 -4.2449148e-16 1.00000000
vn 1.0992612e-15 -4.2449148e-16 1.00000000
vn 0.0000000e+0 -1.00000000 0.0000000e+0
vn 0.0000000e+0 -1.00000000 0.0000000e+0
vn -0.99964267 -2.6730818e-2 8.6339658e-16
vn -0.99964267 -2.6730818e-2 9.0264188e-16
vn 0.0000000e+0 -1.00000000 0.0000000e+0
vn -0.99964267 -2.6730818e-2 8.6339658e-16
vn -0.99964267 -2.6730818e-2 9.0264188e-16
vn 0.0000000e+0 -1.00000000 0.0000000e+0
vn 1.1777798e-15 -4.1958406e-16 -1.00000000
vn 1.1777798e-15 -4.1958406e-16 -1.00000000
vn 0.0000000e+0 1.00000000 1.5497082e-14
vn -0.13425794 0.99094642 0.0000000e+0
vn 0.0000000e+0 1.00000000 0.0000000e+0
vn -1.7757925e-2 -2.4059246e-3 -0.99983942
vn -0.70388402 -9.5365415e-2 -0.70388402
vn -0.13425794 0.99094642 0.0000000e+0
vn 0.0000000e+0 1.00000000 -1.5497082e-14
vn 0.0000000e+0 1.00000000 0.0000000e+0
vn -0.70388402 -9.5365415e-2 0.70388402
vn -1.7757925e-2 -2.4059246e-3 0.99983942
vn -0.55896921 -0.23809410 -0.79426987
vn -0.55896921 -0.23809410 -0.79426987
vn -1.7757925e-2 -2.4059246e-3 -0.99983942
vn -1.7757925e-2 -2.4059246e-3 -0.99983942
vn -0.55896921 -0.23809410 -0.79426987
vn -0.55896921 -0.23809410 -0.79426987
vn -0.95309412 -0.24211937 -0.18163097
vn -0.95309412 -0.24211937 -0.18163097
vn -0.95309412 -0.24211937 -0.18163097
vn 6.7622735e-2 -0.60502488 0.79332973
vn -0.95309412 -0.24211937 -0.18163097
vn -0.95309412 -0.24211937 -0.18163097
vn -0.95309412 -0.24211937 -0.18163097
vn -0.95309412 -0.24211937 -0.18163097
vn -0.70431837 -8.8720159e-2 0.70431837
vn -0.70431837 -8.8720159e-2 0.70431837
vn -1.7757925e-2 -2.4059246e-3 0.99983942
vn 6.7622735e-2 -0.60502488 0.79332973
vn -0.70431837 -8.8720159e-2 0.70431837
vn -1.7757925e-2 -2.4059246e-3 0.99983942
vn 6.7622735e-2 -0.60502488 -0.79332973
vn -1.7757925e-2 -2.4059246e-3 0.99983942
vn -1.7757925e-2 -2.4059246e-3 -0.99983942
vn 6.7622735e-2 -0.60502488 0.79332973
vn -0.13425794 0.99094642 0.0000000e+0
vn -1.7757925e-2 -2.4059246e-3 0.99983942
vn -1.7757925e-2 -2.4059246e-3 -0.99983942
vn -1.7757925e-2 -2.4059246e-3 0.99983942
vn -1.7757925e-2 -2.4059246e-3 -0.99983942
g cylinder7_image
usemtl image
s 1
f 1/44/11 16/40/47 2/42/15
f 3/41/18 15/39/41 1/44/8
f 5/22/31 6/30/35 4/14/26
f 16/40/50 21/25/78 19/32/70
f 19/5/68 20/43/74 18/23/60
f 21/2/77 17/20/53 20/21/73
s 2
f 4/14/23 6/30/32 7/24/38
f 16/40/48 1/44/12 15/39/43
f 17/20/54 21/2/79 15/9/44
f 20/43/72 19/32/67 21/25/76
s 3
f 1/29/9 8/13/1 3/34/19
f 2/18/14 8/13/1 1/29/10
f 2/46/13 19/32/65 10/33/3
f 3/34/22 8/13/1 13/26/6
f 3/8/21 17/6/55 15/9/45
f 4/49/25 11/37/4 5/48/30
f 4/12/27 14/17/7 9/11/2
f 5/48/29 11/37/4 6/47/34
f 6/47/37 11/37/4 12/36/5
f 6/27/33 14/16/7 7/15/40
f 7/19/39 14/17/7 4/12/24
f 8/35/1 11/37/4 9/38/2
f 9/38/2 11/37/4 4/49/28
f 9/11/2 14/17/7 8/13/1
f 10/10/3 8/13/1 2/18/16
f 10/33/3 18/31/62 11/37/4
f 11/37/4 8/35/1 10/33/3
f 11/37/4 18/31/61 12/36/5
f 12/28/5 14/16/7 6/27/36
f 12/4/5 18/7/57 14/1/7
f 13/26/6 8/13/1 14/17/7
f 13/3/6 17/6/51 3/8/20
f 13/3/6 18/7/63 17/6/56
f 14/1/7 18/7/64 13/3/6
f 15/39/42 21/2/75 16/40/46
f 16/45/49 19/32/69 2/46/17
f 18/23/59 20/43/71 17/20/52
f 19/32/66 18/31/58 10/33/3
