# Exported from Wings 3D 1.2
mtllib robottrack.mtl
o cylinder5
#40 vertices, 80 faces
v -0.85000000 0.20000000 0.12500000
v -0.79142136 0.34142136 0.12500000
v -0.65000000 0.40000000 0.12500000
v -0.65000000 -1.6653345e-16 0.12500000
v -0.79142136 5.8578644e-2 0.12500000
v -0.85000000 0.20000000 -0.12500000
v -0.79142136 0.34142136 -0.12500000
v -0.65000000 0.40000000 -0.12500000
v -0.65000000 -1.6653345e-16 -0.12500000
v -0.79142136 5.8578644e-2 -0.12500000
v -0.77374369 0.32374369 0.12500000
v -0.82500000 0.20000000 0.12500000
v -0.77374369 7.6256313e-2 0.12500000
v -0.65000000 2.5000000e-2 0.12500000
v -0.65000000 0.37500000 0.12500000
v -0.82500000 0.20000000 -0.12500000
v -0.77374369 0.32374369 -0.12500000
v -0.65000000 0.37500000 -0.12500000
v -0.65000000 2.5000000e-2 -0.12500000
v -0.77374369 7.6256313e-2 -0.12500000
v 0.65000000 0.40000000 0.12500000
v 0.79142136 0.34142136 0.12500000
v 0.85000000 0.20000000 0.12500000
v 0.79142136 5.8578644e-2 0.12500000
v 0.65000000 -2.7755576e-16 0.12500000
v 0.65000000 0.40000000 -0.12500000
v 0.79142136 0.34142136 -0.12500000
v 0.85000000 0.20000000 -0.12500000
v 0.79142136 5.8578644e-2 -0.12500000
v 0.65000000 -2.7755576e-16 -0.12500000
v 0.65000000 2.5000000e-2 0.12500000
v 0.77374369 7.6256313e-2 0.12500000
v 0.82500000 0.20000000 0.12500000
v 0.77374369 0.32374369 0.12500000
v 0.65000000 0.37500000 0.12500000
v 0.65000000 0.37500000 -0.12500000
v 0.77374369 0.32374369 -0.12500000
v 0.82500000 0.20000000 -0.12500000
v 0.77374369 7.6256313e-2 -0.12500000
v 0.65000000 2.5000000e-2 -0.12500000
vt 0.70679471 3.56586317
vt 0.70698126 2.35699444
vt 0.70749640 2.22325504
vt 0.70758854 1.78656537
vt 0.70760793 2.20502088
vt 0.70819168 2.34779899
vt 0.70838250 1.92103870
vt 0.70851449 2.06275203
vt 0.70862614 1.93911451
vt 0.70931566 2.08046671
vt 0.70961440 1.79528078
vt 0.71287112 0.57574885
vt 0.71448368 0.56699167
vt 0.71516676 0.44210418
vt 0.71523735 0.42430357
vt 0.71571092 0.29938040
vt 0.71588380 0.28168490
vt 0.71649741 0.15669900
vt 0.71661132 0.13886658
vt 0.71717507 1.4067040e-2
vt 0.72915260 2.21416198
vt 0.73002656 1.93001635
vt 0.73003988 3.56586545
vt 0.73013828 2.35698758
vt 0.73035062 2.07185901
vt 0.73089716 1.78667071
vt 0.73364087 7.6165477e-2
vt 0.73364087 1.91027370
vt 0.73364087 3.49494345
vt 0.73364087 0.20088472
vt 0.73364087 1.78555446
vt 0.73364087 0.57504244
vt 0.73364087 2.03499295
vt 0.73364087 2.28443143
vt 0.73364087 0.45032320
vt 0.73364087 0.32560396
vt 0.73364087 2.15971219
vt 0.73615121 0.57585713
vt 0.73673728 0.43329411
vt 0.73735731 0.29062046
vt 0.73808318 0.14787667
vt 0.73874155 5.2434765e-3
vt 0.96243833 2.21483375
vt 0.96248682 3.56585473
vt 0.96278599 2.35680283
vt 0.96318924 1.92944969
vt 0.96352165 2.07196816
vt 0.96407139 1.78717947
vt 0.96643165 2.03499295
vt 0.96643165 2.28443143
vt 0.96643165 2.15971219
vt 0.96643165 1.91027370
vt 0.96643165 7.6165477e-2
vt 0.96643165 3.49494345
vt 0.96643165 0.20088472
vt 0.96643165 1.78555446
vt 0.96643165 0.57504244
vt 0.96643165 0.32560396
vt 0.96643165 0.45032320
vt 0.96901097 0.57680426
vt 0.96963797 0.43420806
vt 0.97039607 0.29156711
vt 0.97114377 0.14883949
vt 0.97178428 6.2195340e-3
vt 0.98393224 2.22362271
vt 0.98408373 2.20604496
vt 0.98430357 2.34790531
vt 0.98461802 1.92059934
vt 0.98471092 1.93830187
vt 0.98504921 2.08104047
vt 0.98518885 2.06298434
vt 0.98544989 1.79618992
vt 0.98574625 3.56586317
vt 0.98608209 2.35687207
vt 0.98742234 1.78734310
vt 0.99058830 0.56799010
vt 0.99108011 0.42547275
vt 0.99124722 0.44318603
vt 0.99186857 0.30061286
vt 0.99201204 0.28278241
vt 0.99228813 0.57688364
vt 0.99251361 0.14011446
vt 0.99287063 0.15785118
vt 0.99327781 1.5274162e-2
vn -1.00000000 1.1716543e-15 0.0000000e+0
vn 0.0000000e+0 0.0000000e+0 1.00000000
vn -1.00000000 1.1716543e-15 0.0000000e+0
vn 0.0000000e+0 0.0000000e+0 1.00000000
vn -0.70710678 0.70710678 0.0000000e+0
vn -0.70710678 0.70710678 0.0000000e+0
vn 0.0000000e+0 0.0000000e+0 1.00000000
vn 0.0000000e+0 0.0000000e+0 1.00000000
vn 0.0000000e+0 0.0000000e+0 1.00000000
vn -0.70710678 0.70710678 0.0000000e+0
vn 0.0000000e+0 0.0000000e+0 1.00000000
vn -0.70710678 0.70710678 0.0000000e+0
vn 0.0000000e+0 0.0000000e+0 1.00000000
vn 0.0000000e+0 0.0000000e+0 1.00000000
vn -0.19509032 0.98078528 0.0000000e+0
vn -0.19509032 0.98078528 0.0000000e+0
vn -0.19509032 -0.98078528 0.0000000e+0
vn 0.0000000e+0 0.0000000e+0 1.00000000
vn 0.0000000e+0 0.0000000e+0 1.00000000
vn -0.19509032 -0.98078528 0.0000000e+0
vn -0.70710678 -0.70710678 0.0000000e+0
vn -0.70710678 -0.70710678 0.0000000e+0
vn 0.0000000e+0 0.0000000e+0 1.00000000
vn 0.0000000e+0 0.0000000e+0 1.00000000
vn -0.70710678 -0.70710678 0.0000000e+0
vn 0.0000000e+0 0.0000000e+0 1.00000000
vn -0.70710678 -0.70710678 0.0000000e+0
vn 0.0000000e+0 0.0000000e+0 1.00000000
vn -1.00000000 1.1716543e-15 0.0000000e+0
vn -1.00000000 1.1716543e-15 0.0000000e+0
vn 0.0000000e+0 0.0000000e+0 -1.00000000
vn 0.0000000e+0 0.0000000e+0 -1.00000000
vn -1.00000000 1.1716543e-15 0.0000000e+0
vn 0.0000000e+0 0.0000000e+0 -1.00000000
vn 0.0000000e+0 0.0000000e+0 -1.00000000
vn -1.00000000 1.1716543e-15 0.0000000e+0
vn -0.70710678 0.70710678 0.0000000e+0
vn -0.70710678 0.70710678 0.0000000e+0
vn 2.4532695e-16 0.0000000e+0 -1.00000000
vn 2.4532695e-16 0.0000000e+0 -1.00000000
vn -0.19509032 0.98078528 0.0000000e+0
vn -1.7523353e-17 0.0000000e+0 -1.00000000
vn -0.19509032 0.98078528 0.0000000e+0
vn -1.7523353e-17 0.0000000e+0 -1.00000000
vn -1.7523353e-17 0.0000000e+0 -1.00000000
vn -1.7523353e-17 0.0000000e+0 -1.00000000
vn -0.19509032 0.98078528 0.0000000e+0
vn -0.19509032 0.98078528 0.0000000e+0
vn -0.19509032 -0.98078528 0.0000000e+0
vn -1.7523353e-17 0.0000000e+0 -1.00000000
vn -0.19509032 -0.98078528 0.0000000e+0
vn -1.7523353e-17 0.0000000e+0 -1.00000000
vn -1.7523353e-17 0.0000000e+0 -1.00000000
vn -0.19509032 -0.98078528 0.0000000e+0
vn -1.7523353e-17 0.0000000e+0 -1.00000000
vn -0.19509032 -0.98078528 0.0000000e+0
vn -0.70710678 -0.70710678 0.0000000e+0
vn -0.70710678 -0.70710678 0.0000000e+0
vn 2.4532695e-16 0.0000000e+0 -1.00000000
vn 2.4532695e-16 0.0000000e+0 -1.00000000
vn 0.0000000e+0 0.0000000e+0 1.00000000
vn 0.0000000e+0 0.0000000e+0 1.00000000
vn 0.70710678 -0.70710678 0.0000000e+0
vn 0.70710678 -0.70710678 0.0000000e+0
vn 0.0000000e+0 0.0000000e+0 1.00000000
vn 0.0000000e+0 0.0000000e+0 1.00000000
vn 1.00000000 -9.0127256e-17 0.0000000e+0
vn 1.00000000 -9.0127256e-17 0.0000000e+0
vn 1.00000000 -9.0127256e-17 0.0000000e+0
vn 1.00000000 -9.0127256e-17 0.0000000e+0
vn 0.0000000e+0 0.0000000e+0 1.00000000
vn 0.0000000e+0 0.0000000e+0 1.00000000
vn 0.0000000e+0 0.0000000e+0 1.00000000
vn 0.0000000e+0 0.0000000e+0 1.00000000
vn 0.70710678 0.70710678 0.0000000e+0
vn 0.70710678 0.70710678 0.0000000e+0
vn 0.0000000e+0 0.0000000e+0 1.00000000
vn 0.19509032 0.98078528 0.0000000e+0
vn 0.0000000e+0 0.0000000e+0 1.00000000
vn 0.19509032 0.98078528 0.0000000e+0
vn 0.0000000e+0 0.0000000e+0 1.00000000
vn 0.19509032 0.98078528 0.0000000e+0
vn 0.19509032 0.98078528 0.0000000e+0
vn 0.0000000e+0 0.0000000e+0 1.00000000
vn 0.0000000e+0 0.0000000e+0 1.00000000
vn 0.19509032 -0.98078528 0.0000000e+0
vn 0.19509032 -0.98078528 0.0000000e+0
vn 0.0000000e+0 0.0000000e+0 1.00000000
vn 0.19509032 -0.98078528 0.0000000e+0
vn 0.0000000e+0 0.0000000e+0 1.00000000
vn 0.0000000e+0 0.0000000e+0 1.00000000
vn 0.19509032 -0.98078528 0.0000000e+0
vn 0.0000000e+0 0.0000000e+0 -1.00000000
vn 0.0000000e+0 0.0000000e+0 -1.00000000
vn 1.00000000 -9.0127256e-17 0.0000000e+0
vn 1.00000000 -9.0127256e-17 0.0000000e+0
vn -1.7523353e-17 0.0000000e+0 -1.00000000
vn -1.7523353e-17 0.0000000e+0 -1.00000000
vn 0.70710678 -0.70710678 0.0000000e+0
vn 0.70710678 -0.70710678 0.0000000e+0
vn 0.70710678 -0.70710678 0.0000000e+0
vn -1.7523353e-17 0.0000000e+0 -1.00000000
vn 0.70710678 -0.70710678 0.0000000e+0
vn -1.7523353e-17 0.0000000e+0 -1.00000000
vn -2.8037365e-16 0.0000000e+0 -1.00000000
vn 0.19509032 -0.98078528 0.0000000e+0
vn -2.8037365e-16 0.0000000e+0 -1.00000000
vn 0.19509032 -0.98078528 0.0000000e+0
vn 0.13660507 0.68676008 -0.71393252
vn 0.13660507 0.68676008 -0.71393252
vn 0.13660507 0.68676008 -0.71393252
vn 0.13660507 0.68676008 -0.71393252
vn -1.7523353e-17 0.0000000e+0 -1.00000000
vn -1.7523353e-17 0.0000000e+0 -1.00000000
vn 0.70710678 0.70710678 0.0000000e+0
vn 0.70710678 0.70710678 0.0000000e+0
vn -1.7523353e-17 0.0000000e+0 -1.00000000
vn 0.70710678 0.70710678 0.0000000e+0
vn 0.70710678 0.70710678 0.0000000e+0
vn -1.7523353e-17 0.0000000e+0 -1.00000000
vn 0.19509032 0.98078528 0.0000000e+0
vn -1.7523353e-17 0.0000000e+0 1.00000000
vn 0.19509032 0.98078528 0.0000000e+0
vn -1.7523353e-17 0.0000000e+0 1.00000000
vn -1.7523353e-17 0.0000000e+0 1.00000000
vn -1.7523353e-17 0.0000000e+0 1.00000000
vn 0.19509032 0.98078528 0.0000000e+0
vn 0.19509032 0.98078528 0.0000000e+0
vn 2.4532695e-16 0.0000000e+0 1.00000000
vn 0.70710678 0.70710678 0.0000000e+0
vn 2.4532695e-16 0.0000000e+0 1.00000000
vn 0.70710678 0.70710678 0.0000000e+0
vn 1.00000000 1.2016967e-15 0.0000000e+0
vn 1.00000000 1.2016967e-15 0.0000000e+0
vn 0.0000000e+0 0.0000000e+0 1.00000000
vn 0.0000000e+0 0.0000000e+0 1.00000000
vn 0.0000000e+0 0.0000000e+0 1.00000000
vn 1.00000000 1.2016967e-15 0.0000000e+0
vn 1.00000000 1.2016967e-15 0.0000000e+0
vn 0.0000000e+0 0.0000000e+0 1.00000000
vn 2.4532695e-16 0.0000000e+0 1.00000000
vn 2.4532695e-16 0.0000000e+0 1.00000000
vn 0.70710678 -0.70710678 0.0000000e+0
vn 0.70710678 -0.70710678 0.0000000e+0
vn 0.19509032 -0.98078528 0.0000000e+0
vn -1.7523353e-17 0.0000000e+0 1.00000000
vn 0.19509032 -0.98078528 0.0000000e+0
vn -1.7523353e-17 0.0000000e+0 1.00000000
vn 0.19509032 -0.98078528 0.0000000e+0
vn -1.7523353e-17 0.0000000e+0 1.00000000
vn -1.7523353e-17 0.0000000e+0 1.00000000
vn 0.19509032 -0.98078528 0.0000000e+0
vn 0.19509032 0.98078528 0.0000000e+0
vn 0.19509032 0.98078528 0.0000000e+0
vn 0.0000000e+0 0.0000000e+0 -1.00000000
vn 0.0000000e+0 0.0000000e+0 -1.00000000
vn 0.70710678 0.70710678 0.0000000e+0
vn 0.70710678 0.70710678 0.0000000e+0
vn 0.0000000e+0 0.0000000e+0 -1.00000000
vn 0.0000000e+0 0.0000000e+0 -1.00000000
vn 0.70710678 0.70710678 0.0000000e+0
vn 0.0000000e+0 0.0000000e+0 -1.00000000
vn 0.70710678 0.70710678 0.0000000e+0
vn 0.0000000e+0 0.0000000e+0 -1.00000000
vn 1.00000000 1.2016967e-15 0.0000000e+0
vn 1.00000000 1.2016967e-15 0.0000000e+0
vn 0.0000000e+0 0.0000000e+0 -1.00000000
vn 0.0000000e+0 0.0000000e+0 -1.00000000
vn 0.70710678 -0.70710678 0.0000000e+0
vn 0.70710678 -0.70710678 0.0000000e+0
vn 0.0000000e+0 0.0000000e+0 -1.00000000
vn 0.0000000e+0 0.0000000e+0 -1.00000000
vn 0.0000000e+0 0.0000000e+0 -1.00000000
vn 0.0000000e+0 0.0000000e+0 -1.00000000
vn 0.70710678 -0.70710678 0.0000000e+0
vn 0.70710678 -0.70710678 0.0000000e+0
vn 0.19509032 -0.98078528 0.0000000e+0
vn 0.19509032 -0.98078528 0.0000000e+0
vn 0.0000000e+0 0.0000000e+0 -1.00000000
vn 0.0000000e+0 0.0000000e+0 -1.00000000
vn -2.8037365e-16 0.0000000e+0 1.00000000
vn -2.8037365e-16 0.0000000e+0 1.00000000
vn -0.19509032 0.98078528 0.0000000e+0
vn -0.19509032 0.98078528 0.0000000e+0
vn -1.7523353e-17 0.0000000e+0 1.00000000
vn -1.7523353e-17 0.0000000e+0 1.00000000
vn -0.70710678 0.70710678 0.0000000e+0
vn -0.70710678 0.70710678 0.0000000e+0
vn -1.7523353e-17 0.0000000e+0 1.00000000
vn -1.7523353e-17 0.0000000e+0 1.00000000
vn -0.70710678 0.70710678 0.0000000e+0
vn -0.70710678 0.70710678 0.0000000e+0
vn 0.0000000e+0 0.0000000e+0 1.00000000
vn 0.0000000e+0 0.0000000e+0 1.00000000
vn -1.00000000 -9.0127256e-16 0.0000000e+0
vn -1.00000000 -9.0127256e-16 0.0000000e+0
vn -1.7523353e-17 0.0000000e+0 1.00000000
vn -1.7523353e-17 0.0000000e+0 1.00000000
vn -0.70710678 -0.70710678 0.0000000e+0
vn -0.70710678 -0.70710678 0.0000000e+0
vn -1.7523353e-17 0.0000000e+0 1.00000000
vn -0.70710678 -0.70710678 0.0000000e+0
vn -1.7523353e-17 0.0000000e+0 1.00000000
vn -0.70710678 -0.70710678 0.0000000e+0
vn -2.8037365e-16 0.0000000e+0 1.00000000
vn -0.19509032 -0.98078528 0.0000000e+0
vn -2.8037365e-16 0.0000000e+0 1.00000000
vn -0.19509032 -0.98078528 0.0000000e+0
vn 0.0000000e+0 0.0000000e+0 -1.00000000
vn -0.19509032 -0.98078528 0.0000000e+0
vn 0.0000000e+0 0.0000000e+0 -1.00000000
vn -0.19509032 -0.98078528 0.0000000e+0
vn 0.0000000e+0 0.0000000e+0 -1.00000000
vn -0.19509032 -0.98078528 0.0000000e+0
vn -0.19509032 -0.98078528 0.0000000e+0
vn 0.0000000e+0 0.0000000e+0 -1.00000000
vn 0.0000000e+0 0.0000000e+0 -1.00000000
vn 0.0000000e+0 0.0000000e+0 -1.00000000
vn -0.70710678 -0.70710678 0.0000000e+0
vn -0.70710678 -0.70710678 0.0000000e+0
vn 0.0000000e+0 0.0000000e+0 -1.00000000
vn 0.0000000e+0 0.0000000e+0 -1.00000000
vn -1.00000000 -9.0127256e-16 0.0000000e+0
vn -1.00000000 -9.0127256e-16 0.0000000e+0
vn -1.00000000 -9.0127256e-16 0.0000000e+0
vn 0.0000000e+0 0.0000000e+0 -1.00000000
vn -1.00000000 -9.0127256e-16 0.0000000e+0
vn 0.0000000e+0 0.0000000e+0 -1.00000000
vn 0.0000000e+0 0.0000000e+0 -1.00000000
vn 0.0000000e+0 0.0000000e+0 -1.00000000
vn -0.70710678 0.70710678 0.0000000e+0
vn -0.70710678 0.70710678 0.0000000e+0
vn -0.13660507 0.68676008 -0.71393252
vn -0.13660507 0.68676008 -0.71393252
vn -0.13660507 0.68676008 -0.71393252
vn -0.13660507 0.68676008 -0.71393252
vn -0.13660507 0.68676008 -0.71393252
vn -0.13660507 0.68676008 -0.71393252
vn -0.13660507 0.68676008 -0.71393252
vn -0.13660507 0.68676008 -0.71393252
g cylinder5_image4
usemtl image4
s 1
f 1/62/1 6/40/33 5/63/25
f 2/61/12 6/40/36 1/62/3
f 2/61/5 8/38/41 7/39/37
f 3/60/16 8/38/48 2/61/10
f 3/60/15 21/48/128 8/38/47
f 5/63/21 6/40/29 10/41/57
f 5/63/27 9/42/56 4/64/20
f 7/39/38 6/40/30 2/61/6
f 9/23/54 25/45/149 4/44/17
f 10/41/58 9/42/49 5/63/22
f 21/48/121 27/22/158 26/26/153
f 22/46/132 27/22/163 21/48/127
f 23/47/138 27/22/161 22/46/130
f 23/47/133 29/21/170 28/25/165
f 24/43/144 29/21/176 23/47/139
f 25/45/147 9/23/51 30/24/178
f 25/45/152 29/21/175 24/43/143
f 26/26/154 8/38/43 21/48/123
f 28/25/166 27/22/157 23/47/134
f 30/24/177 29/21/169 25/45/145
s 2
f 1/62/2 12/79/71 2/61/11
f 2/61/9 15/76/91 3/60/14
f 4/64/19 14/84/84 5/63/26
f 4/44/18 25/45/150 14/73/81
f 5/63/28 12/80/72 1/62/4
f 11/77/61 2/61/7 12/79/65
f 11/78/62 15/76/85 2/61/8
f 12/80/66 5/63/23 13/83/73
f 13/82/74 5/63/24 14/84/77
f 15/81/90 21/48/125 3/60/13
f 21/48/124 15/81/88 35/75/207
f 21/48/126 34/68/201 22/46/129
f 22/46/131 34/69/203 23/47/140
f 23/47/137 32/66/190 24/43/142
f 24/43/141 32/65/189 25/45/151
f 31/74/182 14/73/79 25/45/148
f 31/67/181 25/45/146 32/65/185
f 32/66/186 23/47/135 33/70/193
f 33/71/194 23/47/136 34/69/197
f 34/68/198 21/48/122 35/72/205
s 3
f 6/40/34 20/18/117 10/41/59
f 7/39/40 17/15/104 6/40/35
f 8/38/45 17/14/102 7/39/39
f 8/38/46 36/4/213 18/12/107
f 10/41/60 20/19/120 9/42/55
f 11/35/64 17/59/103 15/32/92
f 12/36/70 17/59/101 11/35/63
f 13/30/75 20/55/118 12/36/69
f 14/27/83 20/55/119 13/30/76
f 14/29/82 40/50/239 19/54/112
f 16/16/93 6/40/31 17/15/97
f 16/58/96 12/36/68 20/55/116
f 16/17/94 20/18/114 6/40/32
f 17/14/98 8/38/42 18/13/105
f 17/59/99 12/36/67 16/58/95
f 18/57/106 15/32/86 17/59/100
f 18/57/108 36/56/214 15/32/89
f 19/20/109 9/42/50 20/19/113
f 19/1/111 40/2/238 9/23/53
f 20/55/115 14/27/78 19/53/110
f 27/22/164 36/11/216 26/26/156
f 28/25/168 38/8/228 27/22/162
f 29/21/173 38/10/226 28/25/167
f 30/24/179 9/23/52 40/2/236
f 30/24/180 40/6/237 29/21/174
f 32/37/191 40/50/240 31/34/184
f 33/33/196 38/49/227 32/37/192
f 34/28/202 38/49/225 33/33/195
f 35/31/206 15/32/87 36/56/212
f 35/31/208 36/56/215 34/28/204
f 36/4/211 8/38/44 26/26/155
f 36/11/209 27/22/159 37/7/217
f 37/9/218 27/22/160 38/8/221
f 37/52/219 34/28/199 36/56/210
f 38/10/222 29/21/171 39/5/229
f 38/49/223 34/28/200 37/52/220
f 39/3/230 29/21/172 40/6/233
f 39/51/231 32/37/187 38/49/224
f 40/50/235 14/29/80 31/34/183
f 40/50/234 32/37/188 39/51/232
