# Exported from Wings 3D 1.2
mtllib sensorlight.mtl
o cube4
#56 vertices, 108 faces
v -0.15000000 5.2000000e-2 5.0000000e-2
v -0.15000000 5.2000000e-2 -5.0000000e-2
v 0.15000000 5.2000000e-2 -5.0000000e-2
v 0.15000000 5.2000000e-2 5.0000000e-2
v -7.5000000e-2 0.17700000 -0.12500000
v 0.32500000 0.17700000 -0.12500000
v 0.32500000 0.17700000 0.12500000
v -7.5000000e-2 0.17700000 0.12500000
v 0.32500000 0.17700000 -0.13500000
v -7.5000000e-2 0.17700000 -0.13500000
v -7.5000000e-2 0.17700000 0.13500000
v 0.32500000 0.17700000 0.13500000
v -7.5000000e-2 0.31200000 -0.12500000
v -7.5000000e-2 0.30200000 -0.13500000
v 0.32500000 0.31200000 -0.12500000
v 0.32500000 0.30200000 -0.13500000
v 0.32500000 0.31200000 0.12500000
v 0.32500000 0.30200000 0.13500000
v -7.5000000e-2 0.30200000 0.13500000
v -7.5000000e-2 0.31200000 0.12500000
v -0.15000000 5.2000000e-2 0.10500000
v -0.15000000 7.2000000e-2 0.12500000
v -0.15000000 0.28200000 0.12500000
v -0.15000000 0.30200000 0.10500000
v -0.15000000 7.2000000e-2 -0.12500000
v -0.15000000 5.2000000e-2 -0.10500000
v -0.15000000 0.28200000 -0.12500000
v -0.15000000 0.30200000 -0.10500000
v -7.5000000e-2 0.30200000 -0.10500000
v -7.5000000e-2 0.28200000 -0.12500000
v 0.32500000 0.30200000 -0.10500000
v 0.32500000 0.28200000 -0.12500000
v 0.32500000 0.28200000 0.12500000
v 0.32500000 0.30200000 0.10500000
v -7.5000000e-2 0.30200000 0.10500000
v -7.5000000e-2 0.28200000 0.12500000
v 0.38000000 5.2000000e-2 -0.10500000
v 0.38000000 5.2000000e-2 0.10500000
v 0.38000000 7.2000000e-2 0.12500000
v 0.38000000 0.28200000 0.12500000
v 0.38000000 0.30200000 0.10500000
v 0.38000000 0.30200000 -0.10500000
v 0.38000000 0.28200000 -0.12500000
v 0.38000000 7.2000000e-2 -0.12500000
v 0.40000000 0.28200000 -0.10500000
v 0.40000000 0.28200000 0.10500000
v 0.40000000 7.2000000e-2 0.10500000
v 0.40000000 7.2000000e-2 -0.10500000
v 0.12500000 -4.8000000e-2 -5.0000000e-2
v 0.15000000 -2.3000000e-2 -5.0000000e-2
v 0.12500000 -4.8000000e-2 5.0000000e-2
v 0.15000000 -2.3000000e-2 5.0000000e-2
v -0.12500000 -4.8000000e-2 5.0000000e-2
v -0.15000000 -2.3000000e-2 5.0000000e-2
v -0.12500000 -4.8000000e-2 -5.0000000e-2
v -0.15000000 -2.3000000e-2 -5.0000000e-2
vt 1.9193587e-2 9.2535091e-3
vt 1.9193587e-2 1.7092349e-2
vt 1.9193587e-2 9.2124333e-2
vt 1.9193587e-2 9.8577301e-2
vt 3.8936996e-2 5.4608341e-2
vt 3.8936996e-2 9.2124333e-2
vt 3.8936996e-2 9.8577301e-2
vt 4.6116418e-2 5.4608341e-2
vt 4.6116418e-2 9.2124333e-2
vt 4.6116418e-2 9.8577301e-2
vt 0.18252543 5.4608341e-2
vt 0.18252543 9.2124333e-2
vt 0.18252543 9.8577301e-2
vt 0.18970485 5.4608341e-2
vt 0.18970485 9.2124333e-2
vt 0.18970485 9.8577301e-2
vt 0.20944826 9.2535091e-3
vt 0.20944826 1.7092349e-2
vt 0.20944826 9.2124333e-2
vt 0.20944826 9.8577301e-2
vt 0.20944826 9.2535091e-3
vt 0.20944826 1.7092349e-2
vt 0.20944826 9.2124333e-2
vt 0.20944826 9.8577301e-2
vt 0.25215191 0.51853870
vt 0.25215191 0.56917878
vt 0.25215191 0.51853870
vt 0.25215191 0.56917878
vt 0.26903194 0.50165867
vt 0.26903194 0.50165867
vt 0.28249559 0.16738522
vt 0.28249559 0.20328233
vt 0.30941843 0.16738522
vt 0.30941843 0.20328233
vt 0.31839270 0.16738522
vt 0.31839270 0.20328233
vt 0.40813547 0.16738522
vt 0.40813547 0.20328233
vt 0.41710975 0.16738522
vt 0.41710975 0.20328233
vt 0.43783220 0.50165867
vt 0.43783220 0.50165867
vt 0.45340938 7.8380489e-2
vt 0.45340938 0.15376442
vt 0.45471223 0.51853870
vt 0.45471223 0.56917878
vt 0.45471223 0.56917878
vt 0.45699909 7.8380489e-2
vt 0.45699909 0.15376442
vt 0.47674250 7.8380489e-2
vt 0.47674250 0.15376442
vt 0.48033221 7.8380489e-2
vt 0.48033221 0.15376442
vt 0.51371730 0.83604679
vt 0.51371730 0.97783901
vt 0.52722132 0.82254277
vt 0.52722132 0.83604679
vt 0.52722132 0.97783901
vt 0.52722132 0.99134303
vt 0.55689901 0.18017257
vt 0.55689901 0.21730863
vt 0.55689901 0.28482873
vt 0.55689901 0.32196479
vt 0.61567995 1.2400263e-2
vt 0.61567995 0.15598869
vt 0.66901354 0.82254277
vt 0.66901354 0.83604679
vt 0.66901354 0.97783901
vt 0.66901354 0.99134303
vt 0.68251756 0.83604679
vt 0.68251756 0.97783901
vt 0.70542272 1.2400263e-2
vt 0.70542272 0.15598869
vt 0.73599467 0.63296905
vt 0.73599467 0.77476127
vt 0.74949869 0.61946503
vt 0.74949869 0.78826529
vt 0.78663474 0.56882495
vt 0.78663474 0.61946503
vt 0.80804406 8.7175404e-2
vt 0.80804406 8.7175404e-2
vt 0.80804406 9.0765115e-2
vt 0.80804406 0.13551390
vt 0.80804406 0.13935898
vt 0.85415485 0.56882495
vt 0.85415485 0.61946503
vt 0.87337481 1.3990189e-2
vt 0.87337481 1.3990189e-2
vt 0.87337481 5.8861574e-2
vt 0.87337481 5.8861574e-2
vt 0.87696452 6.2451285e-2
vt 0.87696452 6.2451285e-2
vt 0.87696452 1.3990189e-2
vt 0.87696452 1.3990189e-2
vt 0.87696452 5.1682152e-2
vt 0.87696452 5.1682152e-2
vt 0.88414394 5.8861574e-2
vt 0.88414394 5.8861574e-2
vt 0.89129091 0.61946503
vt 0.89129091 0.78826529
vt 0.90479493 0.63296905
vt 0.90479493 0.77476127
vt 0.91475557 0.18017257
vt 0.91475557 0.32196479
vt 0.95163249 8.7175404e-2
vt 0.95163249 8.7175404e-2
vt 0.95163249 9.0765115e-2
vt 0.95163249 0.13551390
vt 0.95163249 0.13551390
vt 0.95163249 0.13935898
vt 0.95952787 5.8861574e-2
vt 0.95952787 5.8861574e-2
vt 0.96670729 1.3990189e-2
vt 0.96670729 1.3990189e-2
vt 0.96670729 5.1682152e-2
vt 0.96670729 5.1682152e-2
vt 0.96670729 6.2451285e-2
vt 0.96670729 6.2451285e-2
vt 0.97029700 1.3990189e-2
vt 0.97029700 1.3990189e-2
vt 0.97029700 5.8861574e-2
vt 0.97029700 5.8861574e-2
vt 40.78255696 50.76477570
vn 0.37844610 -0.89286296 -0.24407843
vn 0.24181137 -0.93970981 0.24181137
vn 0.20811740 -0.32268816 0.92334149
vn 0.37844610 0.24407843 0.89286296
vn 0.32672707 0.88684770 0.32672707
vn 0.36700100 0.85476344 -0.36700100
vn 0.24407843 0.37844610 -0.89286296
vn 0.28460603 -0.28460603 -0.91542275
vn 0.88684770 0.32672707 -0.32672707
vn 0.85476344 0.36700100 0.36700100
vn 0.88684770 -0.32672707 0.32672707
vn 0.85476344 -0.36700100 -0.36700100
vn 0.0000000e+0 0.0000000e+0 1.00000000
vn 0.0000000e+0 1.00000000 0.0000000e+0
vn -1.00000000 7.1741545e-16 0.0000000e+0
vn -1.00000000 7.1741545e-16 0.0000000e+0
vn -1.00000000 7.1741545e-16 0.0000000e+0
vn -1.00000000 7.1741545e-16 0.0000000e+0
vn 0.0000000e+0 -1.00000000 0.0000000e+0
vn 0.0000000e+0 -1.00000000 0.0000000e+0
vn -1.00000000 0.0000000e+0 0.0000000e+0
vn 0.0000000e+0 0.0000000e+0 1.00000000
vn 0.0000000e+0 -1.00000000 0.0000000e+0
vn -1.00000000 0.0000000e+0 0.0000000e+0
vn 0.0000000e+0 1.00000000 0.0000000e+0
vn -1.00000000 5.7393236e-16 0.0000000e+0
vn -1.00000000 5.7393236e-16 0.0000000e+0
vn -1.00000000 5.7393236e-16 0.0000000e+0
vn -1.00000000 5.7393236e-16 0.0000000e+0
vn -1.00000000 5.7393236e-16 0.0000000e+0
vn 0.0000000e+0 -1.00000000 0.0000000e+0
vn 0.0000000e+0 -1.00000000 0.0000000e+0
vn 0.0000000e+0 1.00000000 0.0000000e+0
vn -1.00000000 0.0000000e+0 0.0000000e+0
vn 0.0000000e+0 0.0000000e+0 -1.00000000
vn 0.0000000e+0 0.0000000e+0 -1.00000000
vn 0.0000000e+0 0.0000000e+0 -1.00000000
vn 0.0000000e+0 0.0000000e+0 -1.00000000
vn 1.00000000 0.0000000e+0 0.0000000e+0
vn 0.0000000e+0 1.00000000 0.0000000e+0
vn 0.0000000e+0 0.0000000e+0 -1.00000000
vn 1.00000000 0.0000000e+0 0.0000000e+0
vn 0.0000000e+0 1.00000000 0.0000000e+0
vn 1.00000000 0.0000000e+0 0.0000000e+0
vn 0.0000000e+0 1.00000000 0.0000000e+0
vn 0.0000000e+0 0.0000000e+0 1.00000000
vn 0.0000000e+0 0.0000000e+0 1.00000000
vn 0.0000000e+0 0.0000000e+0 1.00000000
vn -0.70710678 -0.70710678 0.0000000e+0
vn 0.0000000e+0 0.0000000e+0 -1.00000000
vn 0.0000000e+0 0.0000000e+0 -1.00000000
vn 0.0000000e+0 0.0000000e+0 -1.00000000
vn 0.0000000e+0 0.0000000e+0 -1.00000000
vn -0.70710678 -0.70710678 0.0000000e+0
vn 0.44721360 -0.89442719 0.0000000e+0
vn 0.0000000e+0 0.0000000e+0 -1.00000000
vn 0.0000000e+0 0.0000000e+0 -1.00000000
vn 0.0000000e+0 0.0000000e+0 -1.00000000
vn 0.44721360 -0.89442719 0.0000000e+0
vn 0.44721360 -0.89442719 0.0000000e+0
vn 0.70710678 -0.70710678 0.0000000e+0
vn 0.0000000e+0 0.0000000e+0 1.00000000
vn 0.0000000e+0 0.0000000e+0 1.00000000
vn 0.0000000e+0 0.0000000e+0 1.00000000
vn 0.70710678 -0.70710678 0.0000000e+0
vn -0.44721360 -0.89442719 0.0000000e+0
vn 0.0000000e+0 0.0000000e+0 1.00000000
vn 0.0000000e+0 0.0000000e+0 1.00000000
vn 0.0000000e+0 0.0000000e+0 1.00000000
vn 0.0000000e+0 0.0000000e+0 1.00000000
vn -0.44721360 -0.89442719 0.0000000e+0
vn -0.44721360 -0.89442719 0.0000000e+0
vn 0.89442719 -0.44721360 0.0000000e+0
vn 0.89442719 -0.44721360 0.0000000e+0
vn 0.89442719 -0.44721360 0.0000000e+0
vn 0.0000000e+0 0.0000000e+0 -1.00000000
vn 0.0000000e+0 0.0000000e+0 -1.00000000
vn -0.70710678 -0.70710678 0.0000000e+0
vn -0.70710678 -0.70710678 0.0000000e+0
vn -0.70710678 -0.70710678 0.0000000e+0
vn 0.0000000e+0 0.0000000e+0 -1.00000000
vn -0.70710678 -0.70710678 0.0000000e+0
vn -0.89442719 -0.44721360 0.0000000e+0
vn -0.89442719 -0.44721360 0.0000000e+0
vn -0.89442719 -0.44721360 0.0000000e+0
vn 0.0000000e+0 0.0000000e+0 1.00000000
vn 0.0000000e+0 0.0000000e+0 1.00000000
vn 0.70710678 -0.70710678 0.0000000e+0
vn 0.70710678 -0.70710678 0.0000000e+0
vn 0.70710678 -0.70710678 0.0000000e+0
vn 0.0000000e+0 0.0000000e+0 1.00000000
vn 0.70710678 -0.70710678 0.0000000e+0
vn 0.0000000e+0 0.92387953 -0.38268343
vn 0.0000000e+0 0.92387953 -0.38268343
vn -1.00000000 -8.2605880e-16 0.0000000e+0
vn -1.00000000 -8.2605880e-16 0.0000000e+0
vn -1.00000000 -8.2605880e-16 0.0000000e+0
vn -1.00000000 -8.2605880e-16 0.0000000e+0
vn 0.0000000e+0 0.92387953 -0.38268343
vn 0.0000000e+0 0.92387953 -0.38268343
vn 0.0000000e+0 0.38268343 -0.92387953
vn 0.0000000e+0 0.38268343 -0.92387953
vn -1.00000000 0.0000000e+0 0.0000000e+0
vn -1.00000000 0.0000000e+0 0.0000000e+0
vn 1.00000000 -3.3042352e-15 0.0000000e+0
vn 1.00000000 -3.3042352e-15 0.0000000e+0
vn 1.00000000 -3.3042352e-15 0.0000000e+0
vn 1.00000000 -3.3042352e-15 0.0000000e+0
vn 0.0000000e+0 0.92387953 -0.38268343
vn 0.0000000e+0 0.92387953 -0.38268343
vn 0.0000000e+0 0.38268343 -0.92387953
vn 0.0000000e+0 0.38268343 -0.92387953
vn 1.00000000 0.0000000e+0 0.0000000e+0
vn 1.00000000 0.0000000e+0 0.0000000e+0
vn 0.0000000e+0 0.38268343 -0.92387953
vn 0.0000000e+0 0.38268343 -0.92387953
vn 0.0000000e+0 0.92387953 0.38268343
vn 0.0000000e+0 0.92387953 0.38268343
vn 1.00000000 0.0000000e+0 0.0000000e+0
vn 1.00000000 0.0000000e+0 0.0000000e+0
vn 1.00000000 0.0000000e+0 0.0000000e+0
vn 0.0000000e+0 0.92387953 0.38268343
vn 0.0000000e+0 0.92387953 0.38268343
vn 0.0000000e+0 0.38268343 0.92387953
vn 0.0000000e+0 0.38268343 0.92387953
vn 1.00000000 0.0000000e+0 0.0000000e+0
vn 1.00000000 0.0000000e+0 0.0000000e+0
vn 0.0000000e+0 0.38268343 0.92387953
vn 0.0000000e+0 0.38268343 0.92387953
vn -1.00000000 0.0000000e+0 0.0000000e+0
vn -1.00000000 0.0000000e+0 0.0000000e+0
vn 0.0000000e+0 0.38268343 0.92387953
vn 0.0000000e+0 0.38268343 0.92387953
vn 0.0000000e+0 0.92387953 0.38268343
vn -1.00000000 0.0000000e+0 0.0000000e+0
vn -1.00000000 0.0000000e+0 0.0000000e+0
vn -1.00000000 0.0000000e+0 0.0000000e+0
vn 0.0000000e+0 0.92387953 0.38268343
vn 0.0000000e+0 -0.86285621 0.50544947
vn -1.00000000 3.1540427e-15 0.0000000e+0
vn 0.0000000e+0 -0.86285621 0.50544947
vn 0.0000000e+0 -0.86285621 0.50544947
vn 0.0000000e+0 -0.25272473 0.96753822
vn -1.00000000 1.5770213e-15 0.0000000e+0
vn -1.00000000 1.5770213e-15 0.0000000e+0
vn 0.0000000e+0 -0.25272473 0.96753822
vn 0.0000000e+0 -0.25272473 0.96753822
vn 0.0000000e+0 0.38268343 0.92387953
vn 0.0000000e+0 0.38268343 0.92387953
vn -1.00000000 -1.4219045e-16 0.0000000e+0
vn -1.00000000 -1.4219045e-16 0.0000000e+0
vn 0.0000000e+0 0.38268343 0.92387953
vn 0.0000000e+0 0.38268343 0.92387953
vn 0.0000000e+0 0.92387953 0.38268343
vn -1.00000000 -9.4793633e-17 0.0000000e+0
vn -1.00000000 -9.4793633e-17 0.0000000e+0
vn -1.00000000 -9.4793633e-17 0.0000000e+0
vn 0.0000000e+0 0.92387953 0.38268343
vn 0.0000000e+0 -0.25272473 -0.96753822
vn -1.00000000 1.5770213e-15 0.0000000e+0
vn -1.00000000 1.5770213e-15 0.0000000e+0
vn 0.0000000e+0 -0.25272473 -0.96753822
vn 0.0000000e+0 -0.25272473 -0.96753822
vn 0.0000000e+0 -0.86285621 -0.50544947
vn 0.0000000e+0 -0.86285621 -0.50544947
vn 0.0000000e+0 -0.86285621 -0.50544947
vn -1.00000000 3.1540427e-15 0.0000000e+0
vn 0.0000000e+0 0.25272473 -0.96753822
vn -1.00000000 -1.4219045e-16 0.0000000e+0
vn -1.00000000 -1.4219045e-16 0.0000000e+0
vn 0.0000000e+0 0.25272473 -0.96753822
vn 0.0000000e+0 0.25272473 -0.96753822
vn 0.0000000e+0 0.92387953 -0.38268343
vn 0.0000000e+0 0.92387953 -0.38268343
vn -1.00000000 -1.4219045e-16 0.0000000e+0
vn -1.00000000 -1.4219045e-16 0.0000000e+0
vn 0.0000000e+0 0.92387953 -0.38268343
vn 0.0000000e+0 0.92387953 -0.38268343
vn 0.0000000e+0 0.92387953 -0.38268343
vn -1.00000000 -1.6521176e-15 0.0000000e+0
vn -1.00000000 -1.6521176e-15 0.0000000e+0
vn 0.0000000e+0 0.92387953 -0.38268343
vn -1.00000000 0.0000000e+0 0.0000000e+0
vn 0.0000000e+0 0.50544947 -0.86285621
vn 0.0000000e+0 0.50544947 -0.86285621
vn -1.00000000 0.0000000e+0 0.0000000e+0
vn -1.00000000 0.0000000e+0 0.0000000e+0
vn -1.00000000 0.0000000e+0 0.0000000e+0
vn 0.0000000e+0 0.50544947 -0.86285621
vn 0.0000000e+0 0.92387953 -0.38268343
vn 0.0000000e+0 0.92387953 -0.38268343
vn 0.0000000e+0 0.92387953 -0.38268343
vn 0.0000000e+0 0.92387953 -0.38268343
vn 1.00000000 -6.6084704e-15 0.0000000e+0
vn 1.00000000 -6.6084704e-15 0.0000000e+0
vn 0.0000000e+0 0.38268343 -0.92387953
vn 0.0000000e+0 0.38268343 -0.92387953
vn 1.00000000 0.0000000e+0 0.0000000e+0
vn 1.00000000 0.0000000e+0 0.0000000e+0
vn 1.00000000 0.0000000e+0 0.0000000e+0
vn 1.00000000 0.0000000e+0 0.0000000e+0
vn 1.00000000 0.0000000e+0 0.0000000e+0
vn 0.0000000e+0 0.50544947 0.86285621
vn 0.0000000e+0 0.50544947 0.86285621
vn 0.0000000e+0 0.50544947 0.86285621
vn 1.00000000 0.0000000e+0 0.0000000e+0
vn 1.00000000 0.0000000e+0 0.0000000e+0
vn 1.00000000 0.0000000e+0 0.0000000e+0
vn 0.0000000e+0 0.92387953 0.38268343
vn 0.0000000e+0 0.92387953 0.38268343
vn 1.00000000 -4.4056469e-15 0.0000000e+0
vn 1.00000000 -4.4056469e-15 0.0000000e+0
vn 1.00000000 -4.4056469e-15 0.0000000e+0
vn 0.0000000e+0 0.92387953 0.38268343
vn 0.0000000e+0 0.92387953 0.38268343
vn 0.0000000e+0 0.92387953 0.38268343
vn 0.0000000e+0 0.92387953 0.38268343
vn -1.00000000 -1.1014117e-15 0.0000000e+0
vn -1.00000000 -1.1014117e-15 0.0000000e+0
vn -1.00000000 -1.1014117e-15 0.0000000e+0
vn 0.0000000e+0 0.38268343 0.92387953
vn 0.0000000e+0 0.38268343 0.92387953
vn -1.00000000 0.0000000e+0 0.0000000e+0
vn -1.00000000 0.0000000e+0 0.0000000e+0
vn -1.00000000 0.0000000e+0 0.0000000e+0
vn -1.00000000 0.0000000e+0 0.0000000e+0
vn 0.0000000e+0 0.0000000e+0 -1.00000000
vn 0.38268343 -0.92387953 0.0000000e+0
vn 0.38268343 -0.92387953 0.0000000e+0
vn 0.0000000e+0 0.0000000e+0 -1.00000000
vn 0.0000000e+0 0.0000000e+0 -1.00000000
vn 0.92387953 -0.38268343 0.0000000e+0
vn 0.0000000e+0 0.0000000e+0 -1.00000000
vn 0.92387953 -0.38268343 0.0000000e+0
vn 0.92387953 -0.38268343 0.0000000e+0
vn 0.92387953 -0.38268343 0.0000000e+0
vn 0.38268343 -0.92387953 0.0000000e+0
vn 0.38268343 -0.92387953 0.0000000e+0
vn 0.38268343 -0.92387953 0.0000000e+0
vn 0.38268343 -0.92387953 0.0000000e+0
vn 0.0000000e+0 0.0000000e+0 1.00000000
vn 0.0000000e+0 0.0000000e+0 1.00000000
vn 0.92387953 -0.38268343 0.0000000e+0
vn 0.92387953 -0.38268343 0.0000000e+0
vn 0.0000000e+0 0.0000000e+0 1.00000000
vn -0.38268343 -0.92387953 0.0000000e+0
vn 0.0000000e+0 0.0000000e+0 1.00000000
vn -0.38268343 -0.92387953 0.0000000e+0
vn 0.0000000e+0 0.0000000e+0 1.00000000
vn 0.0000000e+0 0.0000000e+0 1.00000000
vn 0.0000000e+0 0.0000000e+0 1.00000000
vn -0.92387953 -0.38268343 0.0000000e+0
vn -0.92387953 -0.38268343 0.0000000e+0
vn -0.92387953 -0.38268343 0.0000000e+0
vn -0.92387953 -0.38268343 0.0000000e+0
vn -0.38268343 -0.92387953 0.0000000e+0
vn -0.38268343 -0.92387953 0.0000000e+0
vn -0.38268343 -0.92387953 0.0000000e+0
vn -0.38268343 -0.92387953 0.0000000e+0
vn 0.0000000e+0 0.0000000e+0 -1.00000000
vn 0.0000000e+0 0.0000000e+0 -1.00000000
vn -0.92387953 -0.38268343 0.0000000e+0
vn -0.92387953 -0.38268343 0.0000000e+0
vn 0.0000000e+0 0.0000000e+0 -1.00000000
g cube4_image
usemtl image
s 1
f 1/28/22 53/30/249 4/47/46
f 2/46/37 55/41/261 56/45/264
f 3/26/41 49/29/230 2/46/35
f 4/47/48 51/42/242 52/45/245
f 9/82/76 10/107/81 16/83/115
f 11/82/86 12/107/91 19/83/133
f 14/108/102 13/110/94 16/83/112
f 14/108/101 16/83/111 10/107/77
f 15/65/110 13/64/100 17/73/122
f 15/84/109 16/83/116 13/110/99
f 18/109/125 17/110/118 19/83/129
f 18/109/124 19/83/128 12/107/87
f 20/72/134 17/73/117 13/64/93
f 20/84/138 19/83/132 17/110/123
f 50/25/233 49/29/227 3/26/38
f 51/42/241 4/47/47 53/30/250
f 54/27/251 53/30/247 1/28/13
f 55/41/260 2/46/36 49/29/231
s 2
f 1/62/19 38/104/2 21/63/141
f 2/123/33 4/123/45 3/123/40
f 2/61/31 38/104/2 1/62/20
f 4/123/43 2/123/25 1/123/14
f 5/11/53 27/23/172 30/12/185
f 6/5/58 44/2/8 5/11/50
f 7/14/63 40/19/4 33/15/204
f 8/8/69 39/18/3 7/14/64
f 21/1/139 39/18/3 22/2/143
f 22/2/146 8/8/68 23/3/152
f 23/3/149 35/10/215 24/4/154
f 24/43/158 35/52/216 28/44/177
f 25/22/162 5/11/51 44/2/8
f 25/22/159 44/2/8 26/21/166
f 26/60/164 37/103/1 2/61/23
f 26/21/165 44/2/8 37/1/1
f 27/23/171 5/11/52 25/22/163
f 27/23/168 28/24/174 30/12/184
f 29/53/179 28/44/173 35/52/214
f 29/13/182 30/12/189 28/24/178
f 32/6/197 31/7/191 43/3/7
f 32/6/196 43/3/7 6/5/56
f 34/16/209 33/15/203 41/20/5
f 34/48/210 41/50/5 31/49/192
f 36/9/221 23/3/148 8/8/67
f 36/9/222 35/10/217 23/3/153
f 37/66/1 47/57/11 38/56/2
f 38/104/2 2/61/32 37/103/1
f 38/17/2 39/18/3 21/1/142
f 39/18/3 8/8/70 22/2/147
f 39/54/3 47/57/11 40/55/4
f 40/19/4 7/14/62 39/18/3
f 40/19/4 41/20/5 33/15/205
f 41/59/5 45/68/9 42/69/6
f 42/51/6 31/49/190 41/50/5
f 42/4/6 43/3/7 31/7/193
f 43/71/7 45/68/9 44/70/8
f 44/2/8 6/5/57 43/3/7
f 44/70/8 48/67/12 37/66/1
f 45/68/9 41/59/5 46/58/10
f 45/68/9 43/71/7 42/69/6
f 46/58/10 40/55/4 47/57/11
f 46/58/10 41/59/5 40/55/4
f 46/58/10 47/57/11 45/68/9
f 47/57/11 37/66/1 48/67/12
f 47/57/11 39/54/3 38/56/2
f 48/67/12 44/70/8 45/68/9
f 48/67/12 45/68/9 47/57/11
s 3
f 1/86/21 2/79/34 54/85/254
f 1/86/18 24/100/156 2/79/29
f 2/79/28 25/74/161 26/76/167
f 4/31/44 50/34/236 3/32/39
f 5/105/54 10/107/82 6/80/60
f 6/80/55 10/107/78 9/82/73
f 7/106/65 12/107/92 8/81/72
f 8/81/66 12/107/88 11/82/83
f 9/119/74 32/115/199 6/113/59
f 10/88/80 30/96/186 14/90/103
f 11/120/84 36/116/224 8/114/71
f 12/87/90 33/95/208 18/89/127
f 13/92/96 35/112/220 20/118/136
f 14/90/104 30/96/188 13/92/98
f 15/117/108 32/115/201 16/121/114
f 16/121/113 32/115/200 9/119/75
f 17/91/121 34/97/213 15/117/106
f 18/89/126 33/95/207 17/91/120
f 19/122/130 36/116/225 11/120/85
f 20/118/137 36/116/226 19/122/131
f 21/99/140 22/101/144 1/86/15
f 23/102/150 1/86/16 22/101/145
f 24/100/155 1/86/17 23/102/151
f 25/74/160 2/79/27 27/75/170
f 27/75/169 2/79/26 28/77/175
f 28/77/176 2/79/30 24/100/157
f 29/98/181 13/92/97 30/96/187
f 30/96/183 10/88/79 5/94/49
f 31/111/194 15/117/105 34/97/212
f 32/115/198 15/117/107 31/111/195
f 33/95/202 12/87/89 7/93/61
f 34/97/211 17/91/119 33/95/206
f 35/112/218 13/92/95 29/98/180
f 36/116/223 20/118/135 35/112/219
f 49/36/228 51/35/239 55/38/258
f 50/34/235 51/35/240 49/36/229
f 51/35/238 50/34/234 52/33/244
f 52/33/243 50/34/232 4/31/42
f 53/37/248 54/39/253 55/38/257
f 53/37/246 55/38/256 51/35/237
f 55/38/259 54/39/255 56/40/263
f 56/78/262 54/85/252 2/79/24
